<?xml version="1.0" encoding="UTF-8" standalone="no"?>
<!-- Created with Inkscape (http://www.inkscape.org/) -->

<svg
   xmlns:dc="http://purl.org/dc/elements/1.1/"
   xmlns:cc="http://creativecommons.org/ns#"
   xmlns:rdf="http://www.w3.org/1999/02/22-rdf-syntax-ns#"
   xmlns:svg="http://www.w3.org/2000/svg"
   xmlns="http://www.w3.org/2000/svg"
   xmlns:sodipodi="http://sodipodi.sourceforge.net/DTD/sodipodi-0.dtd"
   xmlns:inkscape="http://www.inkscape.org/namespaces/inkscape"
   width="105.25156mm"
   height="78.237862mm"
   viewBox="0 0 105.25156 78.237862"
   version="1.1"
   id="svg8"
   inkscape:version="0.92.4 (5da689c313, 2019-01-14)"
   sodipodi:docname="csLogo.svg">
  <defs
     id="defs2">
    <clipPath
       id="clipPath47"
       clipPathUnits="userSpaceOnUse">
      <path
         inkscape:connector-curvature="0"
         id="path45"
         d="M 0,2218.94 V 0 h 2993.59 v 2218.94 z" />
    </clipPath>
  </defs>
  <sodipodi:namedview
     id="base"
     pagecolor="#ffffff"
     bordercolor="#666666"
     borderopacity="1.0"
     inkscape:pageopacity="0.0"
     inkscape:pageshadow="2"
     inkscape:zoom="1.4"
     inkscape:cx="263.83937"
     inkscape:cy="170.02992"
     inkscape:document-units="mm"
     inkscape:current-layer="text67"
     showgrid="false"
     fit-margin-top="0"
     fit-margin-left="0"
     fit-margin-right="0"
     fit-margin-bottom="0"
     inkscape:pagecheckerboard="false"
     inkscape:window-width="1920"
     inkscape:window-height="1016"
     inkscape:window-x="0"
     inkscape:window-y="1107"
     inkscape:window-maximized="1"
     inkscape:snap-text-baseline="false" />
  <metadata
     id="metadata5">
    <rdf:RDF>
      <cc:Work
         rdf:about="">
        <dc:format>image/svg+xml</dc:format>
        <dc:type
           rdf:resource="http://purl.org/dc/dcmitype/StillImage" />
        <dc:title></dc:title>
      </cc:Work>
    </rdf:RDF>
  </metadata>
  <g
     inkscape:label="Layer 1"
     inkscape:groupmode="layer"
     id="layer1"
     transform="translate(-42.624224,-85.523929)">
    <g
       id="g41"
       transform="matrix(0.03527778,0,0,-0.03527778,42.268578,163.80306)">
      <g
         clip-path="url(#clipPath47)"
         id="g43">
        <path
           inkscape:connector-curvature="0"
           id="path49"
           style="fill:#408dd3;fill-opacity:1;fill-rule:nonzero;stroke:none"
           d="m 2219.21,1073 c 0,-452.871 -367.13,-820 -820,-820 -452.87,0 -819.999,367.129 -819.999,820 0,452.88 367.129,820 819.999,820 452.87,0 820,-367.12 820,-820" />
        <path
           inkscape:connector-curvature="0"
           id="path51"
           style="fill:#2b3c91;fill-opacity:1;fill-rule:nonzero;stroke:none"
           d="m 1896.72,2202.61 -346.19,-405.49 178.06,-502.55 524.24,-97.06 346.2,405.47 -178.06,502.56 -524.25,97.07" />
        <path
           inkscape:connector-curvature="0"
           id="path53"
           style="fill:none;stroke:#ffffff;stroke-width:30;stroke-linecap:butt;stroke-linejoin:miter;stroke-miterlimit:4;stroke-dasharray:none;stroke-opacity:1"
           d="m 1896.72,2202.61 -346.19,-405.49 178.06,-502.55 524.24,-97.06 346.2,405.47 -178.06,502.56 z" />
        <path
           inkscape:connector-curvature="0"
           id="path55"
           style="fill:#ffffff;fill-opacity:1;fill-rule:nonzero;stroke:none"
           d="m 2299.17,1765.7 -60.47,23.72 c 17.1,43.6 20.72,74.1 10.87,91.54 -9.86,17.44 -41.62,36.68 -95.29,57.74 -63.67,24.99 -106.92,35.49 -129.74,31.5 -22.81,-3.99 -41.83,-25.36 -57.05,-64.15 -17.07,-43.52 -20.24,-72.88 -9.49,-88.05 10.74,-15.18 51.24,-38.53 121.47,-70.04 82.5,-36.63 131.67,-68.26 147.5,-94.87 15.83,-26.6 11.68,-70.64 -12.43,-132.11 -26.09,-66.48 -56.07,-104.33 -89.94,-113.57 -33.88,-9.24 -95.6,3.73 -185.16,38.87 -77.72,30.5 -125.56,60.62 -143.51,90.4 -17.97,29.77 -15.23,74.51 8.21,134.24 l 9.07,24.28 60.46,-23.71 -5.3,-13.51 c -19.02,-48.5 -23.48,-81.53 -13.36,-99.09 10.13,-17.57 45.62,-38.3 106.45,-62.17 69.79,-27.38 115.02,-38.35 135.7,-32.9 20.67,5.45 41.01,33.66 61.01,84.64 12.96,33.01 16.13,57.13 9.5,72.39 -6.63,15.25 -26.91,30.75 -60.84,46.5 l -61.96,27.97 -58.79,26.73 c -88.76,42.13 -115.76,107.47 -81,196.04 24.09,61.41 53.46,97.18 88.12,107.31 34.66,10.13 91.75,-0.41 171.26,-31.6 80.55,-31.61 129.32,-61.79 146.31,-90.5 16.98,-28.72 13.12,-74.58 -11.6,-137.6" />
        <path
           inkscape:connector-curvature="0"
           id="path57"
           style="fill:#ffffff;fill-opacity:1;fill-rule:nonzero;stroke:none"
           d="m 1641.43,1182.5 -420.76,-38.34 -19.21,210.93 c -5.59,61.32 -13.55,99.2 -23.86,113.6 -10.33,14.39 -30.72,20.2 -61.14,17.43 -34.42,-3.14 -55.42,-14.35 -63,-33.62 -7.58,-19.29 -8.58,-59.59 -2.99,-120.88 l 51.21,-562.179 c 5.36,-58.82 13.49,-96.769 24.37,-113.863 10.9,-17.09 32.56,-24.156 65.01,-21.199 31.08,2.832 50.61,13.652 58.59,32.461 7.96,18.808 8.92,61.359 2.88,127.648 l -13.82,151.742 420.75,38.34 4.3,-47.14 c 11.41,-125.231 7.68,-215.121 -11.17,-269.649 -18.86,-54.551 -66.93,-105.222 -144.2,-151.992 -77.29,-46.758 -175.16,-75.559 -293.63,-86.348 -123.13,-11.222 -226.166,-3.742 -309.076,22.368 -82.903,26.14 -140.047,67.601 -171.375,124.339 -31.348,56.75 -52.422,144.481 -63.247,263.204 l -32.246,353.928 c -7.949,87.29 -9.929,153.12 -5.918,197.5 4.004,44.37 23.989,88.56 59.907,132.56 35.918,44.01 87.937,80.82 156.035,110.42 68.101,29.58 147.742,48.54 238.93,56.85 123.78,11.28 227.6,2.61 311.42,-25.97 83.8,-28.61 140.81,-68.59 170.98,-119.93 30.17,-51.33 50.44,-133.65 60.76,-246.93 l 10.5,-115.28" />
        <g
           transform="scale(10)"
           id="g59">
          <g
             aria-label="University of Maine"
             transform="matrix(1,0,0,-0.749569,3.90625e-4,2.82109)"
             style="font-style:italic;font-variant:normal;font-weight:300;font-size:17.34329987px;font-family:HelveticaNeue;-inkscape-font-specification:HelveticaNeue-LightItalic;writing-mode:lr-tb;fill:#211d1d;fill-opacity:1;fill-rule:nonzero;stroke:none"
             id="text63">
            <path
               d="m 2.6844854,-12.643333 h 1.7190868 l -1.4904398,7.6808458 q -0.093152,0.5165729 -0.1354945,0.8553093 -0.033874,0.3302679 -0.033874,0.5843201 0,1.1686403 0.6520675,1.7783657 0.6520674,0.601257 1.9138602,0.601257 1.6344028,0 2.5405224,-0.8976513 0.9145881,-0.8976512 1.3041349,-2.9216008 l 1.4904401,-7.6808458 h 1.719087 l -1.524314,7.892556 q -0.499636,2.5574593 -1.8969233,3.77691006 -1.3972873,1.21945078 -3.8277205,1.21945078 -1.8969234,0 -3.0062849,-0.94846172 -1.100893,-0.95693012 -1.100893,-2.59133292 0,-0.2963943 0.042342,-0.6605358 0.042342,-0.37261 0.1270261,-0.7960304 z"
               id="path3920"
               inkscape:connector-curvature="0" />
            <path
               d="M 21.872137,-5.7246439 20.762776,0 H 19.19612 l 1.109362,-5.665365 q 0.07621,-0.3980152 0.118557,-0.7028779 0.04234,-0.3048627 0.04234,-0.4826993 0,-0.7113463 -0.448825,-1.1093614 -0.448826,-0.3980152 -1.253325,-0.3980152 -1.253324,0 -2.159444,0.8383724 -0.906119,0.829904 -1.185577,2.2610649 L 14.377596,0 h -1.558187 l 1.837644,-9.4846171 h 1.558187 l -0.313331,1.4904398 q 0.652068,-0.8214356 1.566656,-1.2702612 0.914588,-0.4488256 1.922329,-0.4488256 1.253324,0 1.939265,0.6774726 0.694409,0.6774727 0.694409,1.9053918 0,0.3048627 -0.04234,0.6520675 -0.03387,0.3472047 -0.110089,0.7536883 z"
               id="path3922"
               inkscape:connector-curvature="0" />
            <path
               d="m 24.698688,-13.176843 h 1.558187 l -0.381078,1.973139 H 24.31761 Z m -0.711346,3.6922259 h 1.558187 L 23.690948,0 H 22.13276 Z"
               id="path3924"
               inkscape:connector-curvature="0" />
            <path
               d="m 25.976402,-9.4846171 h 1.65134 l 1.388819,8.0619245 4.539067,-8.0619245 h 1.651339 L 29.812591,0 h -2.100165 z"
               id="path3926"
               inkscape:connector-curvature="0" />
            <path
               d="m 41.102876,-5.5891494 q 0.0254,-0.1354945 0.03387,-0.2794574 0.01694,-0.143963 0.01694,-0.2879259 0,-1.0331458 -0.609725,-1.6344028 -0.601257,-0.601257 -1.642871,-0.601257 -1.160172,0 -2.049355,0.7367515 -0.889183,0.7282831 -1.346477,2.07476 z m 1.354945,1.2194508 h -7.248957 q -0.05081,0.3217995 -0.06775,0.5081045 -0.01694,0.186305 -0.01694,0.3217995 0,1.1771087 0.719814,1.8207077 0.728283,0.6435991 2.049355,0.6435991 1.016209,0 1.922329,-0.2286471 0.906119,-0.228647 1.685213,-0.6690042 l -0.296394,1.54125028 q -0.838373,0.33873633 -1.736024,0.50810449 -0.889183,0.16936817 -1.812239,0.16936817 -1.97314,0 -3.040159,-0.93999331 -1.058551,-0.94846173 -1.058551,-2.68448533 0,-1.4819715 0.525041,-2.7522327 0.53351,-1.2787296 1.558187,-2.2780018 0.660536,-0.6266622 1.566656,-0.9653985 0.914588,-0.3387363 1.939265,-0.3387363 1.608998,0 2.55746,0.9653985 0.95693,0.9653985 0.95693,2.5913329 0,0.3895468 -0.05081,0.8383724 -0.05081,0.4403572 -0.152431,0.9484617 z"
               id="path3928"
               inkscape:connector-curvature="0" />
            <path
               d="m 49.494321,-8.0449877 q -0.237115,-0.1270262 -0.541978,-0.1947734 -0.304862,-0.067747 -0.652067,-0.067747 -1.244856,0 -2.176381,0.9484617 -0.931525,0.9399933 -1.236388,2.5235857 L 43.930577,0 H 42.37239 l 1.854582,-9.4846171 h 1.558187 l -0.296395,1.473503 q 0.618194,-0.8214356 1.473503,-1.2617928 0.863778,-0.4403572 1.837645,-0.4403572 0.254052,0 0.499636,0.033874 0.245584,0.025405 0.491168,0.093153 z"
               id="path3930"
               inkscape:connector-curvature="0" />
            <path
               d="m 55.897457,-9.2051596 -0.296394,1.473503 q -0.618194,-0.3387364 -1.304135,-0.5081045 -0.685941,-0.1693682 -1.414224,-0.1693682 -1.227919,0 -1.939266,0.4234204 -0.702878,0.414952 -0.702878,1.1347667 0,0.8383724 1.642872,1.2871981 0.127026,0.033874 0.186305,0.05081 l 0.499636,0.1524313 q 1.558187,0.4318889 2.07476,0.9061197 0.525041,0.4742309 0.525041,1.2956665 0,1.5073766 -1.202514,2.45583832 -1.194045,0.94846172 -3.133311,0.94846172 -0.753688,0 -1.583592,-0.14396294 -0.829904,-0.14396294 -1.829176,-0.44882563 l 0.304862,-1.60899757 q 0.855309,0.4403572 1.685213,0.6690043 0.829904,0.228647 1.592061,0.228647 1.143235,0 1.854582,-0.4911677 0.719814,-0.4911677 0.719814,-1.244856 0,-0.8129672 -1.879986,-1.3126032 l -0.1609,-0.042342 -0.53351,-0.1354945 q -1.185577,-0.3133311 -1.736023,-0.8214356 -0.550447,-0.5165729 -0.550447,-1.3126033 0,-1.515845 1.134767,-2.4050279 1.143235,-0.8891828 3.099437,-0.8891828 0.770625,0 1.498908,0.1270261 0.736752,0.1270261 1.448098,0.3810787 z"
               id="path3932"
               inkscape:connector-curvature="0" />
            <path
               d="m 58.743585,-13.176843 h 1.558187 l -0.381078,1.973139 h -1.558187 z m -0.711346,3.6922259 h 1.558187 L 57.735845,0 h -1.558187 z"
               id="path3934"
               inkscape:connector-curvature="0" />
            <path
               d="m 66.110085,-9.4846171 -0.237115,1.2109823 h -3.107906 l -1.007741,5.1487922 q -0.05081,0.2879259 -0.07622,0.4826993 -0.0254,0.1947733 -0.0254,0.3048627 0,0.5419781 0.3218,0.7875619 0.330268,0.2455838 1.050082,0.2455838 h 1.575124 L 64.340188,0 h -1.49044 q -1.388819,0 -2.07476,-0.54197812 -0.677473,-0.54197808 -0.677473,-1.64287118 0,-0.1947734 0.0254,-0.4234204 0.02541,-0.2371154 0.07622,-0.5165729 l 1.007741,-5.1487922 h -1.321072 l 0.245584,-1.2109823 h 1.295666 l 0.525042,-2.6929539 h 1.558187 l -0.516573,2.6929539 z"
               id="path3936"
               inkscape:connector-curvature="0" />
            <path
               d="M 68.212012,0.88071445 Q 67.128056,2.7014222 66.442115,3.1502478 65.764642,3.6075419 64.706091,3.6075419 H 63.478172 L 63.740693,2.303407 h 0.897651 q 0.652067,0 1.109361,-0.3556731 0.457294,-0.3556732 1.024678,-1.38881896 l 0.482699,-0.90611967 -2.100165,-9.13741237 h 1.651339 l 1.575124,7.2658942 4.352762,-7.2658942 h 1.634403 z"
               id="path3938"
               inkscape:connector-curvature="0" />
            <path
               d="m 81.165016,0.24558384 q -1.668276,0 -2.642143,-1.02467739 -0.965399,-1.03314575 -0.965399,-2.81151155 0,-1.0331457 0.330268,-2.1001652 0.338737,-1.0754878 0.872246,-1.8037709 0.838373,-1.1347667 1.871519,-1.6767448 1.033145,-0.5419781 2.33728,-0.5419781 1.617466,0 2.60827,1.0077405 0.999272,1.0077406 0.999272,2.633675 0,1.1262982 -0.330268,2.2441281 -0.330268,1.1178299 -0.863777,1.8545814 -0.829904,1.13476669 -1.86305,1.67674482 -1.033146,0.54197812 -2.354218,0.54197812 z M 79.17494,-3.6414155 q 0,1.287198 0.53351,1.9307971 0.541978,0.6351306 1.634403,0.6351306 1.566655,0 2.591333,-1.3634137 1.033146,-1.3718822 1.033146,-3.4720474 0,-1.2279192 -0.550447,-1.8545814 -0.550446,-0.6266622 -1.617466,-0.6266622 -0.880714,0 -1.566655,0.414952 -0.685941,0.4064836 -1.22792,1.244856 -0.398015,0.6266622 -0.618193,1.431161 -0.211711,0.8044988 -0.211711,1.659808 z"
               id="path3940"
               inkscape:connector-curvature="0" />
            <path
               d="m 94.694891,-13.176843 -0.245584,1.295666 h -1.490439 q -0.846841,0 -1.236388,0.338737 -0.381078,0.330268 -0.567383,1.21945 l -0.169368,0.8383729 h 2.565927 l -0.228647,1.2109823 H 90.757082 L 89.148084,0 h -1.566656 l 1.617466,-8.2736348 h -1.490439 l 0.220178,-1.2109823 h 1.49044 l 0.127026,-0.6605359 q 0.3218,-1.676745 1.126298,-2.354217 0.812968,-0.677473 2.548991,-0.677473 z"
               id="path3942"
               inkscape:connector-curvature="0" />
            <path
               d="m 98.647743,-12.643333 h 2.565927 l 1.4735,8.5192182 4.89474,-8.5192182 h 2.63368 L 107.75128,0 h -1.65981 l 2.15098,-11.085146 -4.96249,8.6547129 h -1.66827 L 100.00269,-11.11902 97.851713,0 h -1.668276 z"
               id="path3944"
               inkscape:connector-curvature="0" />
            <path
               d="M 119.80941,-5.4113128 118.75086,0 h -1.55819 l 0.28793,-1.4396294 q -0.68594,0.84684083 -1.56666,1.27026124 -0.87224,0.414952 -1.94773,0.414952 -1.21098,0 -1.99008,-0.73675151 -0.77062,-0.74521993 -0.77062,-1.90539183 0,-1.659808 1.32107,-2.6252065 1.32954,-0.9653986 3.65835,-0.9653986 h 2.16792 l 0.0847,-0.414952 q 0.0169,-0.067747 0.0254,-0.1439629 0.008,-0.084684 0.008,-0.2540522 0,-0.7536884 -0.61819,-1.1686404 -0.60973,-0.4234204 -1.71909,-0.4234204 -0.76215,0 -1.56665,0.1947734 -0.79603,0.1947734 -1.64287,0.5843202 l 0.27099,-1.4396294 q 0.88071,-0.3302679 1.71908,-0.4911677 0.84684,-0.1693681 1.63441,-0.1693681 1.67674,0 2.54899,0.7282831 0.88071,0.7282831 0.88071,2.117102 0,0.2794575 -0.0423,0.6605358 -0.0423,0.37261 -0.12703,0.7960304 z m -1.68521,0.643599 h -1.55819 q -1.91386,0 -2.83691,0.5165729 -0.91459,0.5081045 -0.91459,1.5835923 0,0.74522 0.46576,1.1686404 0.47423,0.4234204 1.30413,0.4234204 1.27027,0 2.21873,-0.9061197 0.94846,-0.9145881 1.25332,-2.4389015 z"
               id="path3946"
               inkscape:connector-curvature="0" />
            <path
               d="m 122.67099,-13.176843 h 1.55819 l -0.38108,1.973139 h -1.55819 z m -0.71134,3.6922259 h 1.55818 L 121.66325,0 h -1.55819 z"
               id="path3948"
               inkscape:connector-curvature="0" />
            <path
               d="M 132.3663,-5.7246439 131.25694,0 h -1.56665 l 1.10936,-5.665365 q 0.0762,-0.3980152 0.11856,-0.7028779 0.0423,-0.3048627 0.0423,-0.4826993 0,-0.7113463 -0.44883,-1.1093614 -0.44882,-0.3980152 -1.25332,-0.3980152 -1.25333,0 -2.15945,0.8383724 -0.90612,0.829904 -1.18557,2.2610649 L 124.87176,0 h -1.55818 l 1.83764,-9.4846171 h 1.55819 l -0.31333,1.4904398 q 0.65206,-0.8214356 1.56665,-1.2702612 0.91459,-0.4488256 1.92233,-0.4488256 1.25332,0 1.93927,0.6774726 0.6944,0.6774727 0.6944,1.9053918 0,0.3048627 -0.0423,0.6520675 -0.0339,0.3472047 -0.11009,0.7536883 z"
               id="path3950"
               inkscape:connector-curvature="0" />
            <path
               d="m 140.35858,-5.5891494 q 0.0254,-0.1354945 0.0339,-0.2794574 0.0169,-0.143963 0.0169,-0.2879259 0,-1.0331458 -0.60973,-1.6344028 -0.60125,-0.601257 -1.64287,-0.601257 -1.16017,0 -2.04935,0.7367515 -0.88919,0.7282831 -1.34648,2.07476 z m 1.35494,1.2194508 h -7.24895 q -0.0508,0.3217995 -0.0678,0.5081045 -0.0169,0.186305 -0.0169,0.3217995 0,1.1771087 0.71982,1.8207077 0.72828,0.6435991 2.04935,0.6435991 1.01621,0 1.92233,-0.2286471 0.90612,-0.228647 1.68521,-0.6690042 l -0.29639,1.54125028 q -0.83837,0.33873633 -1.73602,0.50810449 -0.88919,0.16936817 -1.81224,0.16936817 -1.97314,0 -3.04016,-0.93999331 -1.05855,-0.94846173 -1.05855,-2.68448533 0,-1.4819715 0.52504,-2.7522327 0.53351,-1.2787296 1.55819,-2.2780018 0.66053,-0.6266622 1.56665,-0.9653985 0.91459,-0.3387363 1.93927,-0.3387363 1.60899,0 2.55746,0.9653985 0.95693,0.9653985 0.95693,2.5913329 0,0.3895468 -0.0508,0.8383724 -0.0508,0.4403572 -0.15244,0.9484617 z"
               id="path3952"
               inkscape:connector-curvature="0" />
          </g>
          <g
             aria-label="Computer Science"
             transform="matrix(1,0,0,-0.749569,145.83813,2.82109)"
             style="font-style:italic;font-variant:normal;font-weight:bold;font-size:17.34329987px;font-family:HelveticaNeue;-inkscape-font-specification:HelveticaNeue-BoldItalic;writing-mode:lr-tb;fill:#211d1d;fill-opacity:1;fill-rule:nonzero;stroke:none"
             id="text67">
            <path
               d="m 10.509294,-0.59278857 q -1.1686398,0.414952 -2.2441277,0.6266622 -1.0754878,0.21171021 -2.0408863,0.21171021 -2.5489909,0 -4.0733043,-1.39728734 -1.5243135,-1.3972873 -1.5243135,-3.7006944 0,-1.515845 0.4826993,-2.8538535 0.4826992,-1.3464769 1.4226925,-2.4558386 1.1093615,-1.304135 2.6675486,-2.007012 1.5666555,-0.702878 3.3704264,-0.702878 0.9823354,0 1.973139,0.237115 0.990804,0.228647 2.015481,0.702878 l -0.525041,2.616738 q -0.812967,-0.6181937 -1.634403,-0.90612 -0.8214354,-0.287925 -1.7614287,-0.287925 -1.9562023,0 -3.2772739,1.5073761 -1.3210717,1.5073767 -1.3210717,3.7684417 0,1.4565662 0.8129672,2.2864702 0.8129671,0.829904 2.2441281,0.829904 0.8553092,0 1.8122394,-0.3048627 0.9653985,-0.3133311 2.1594436,-0.973867 z"
               id="path3955"
               inkscape:connector-curvature="0" />
            <path
               d="m 19.355351,-7.5453517 q -1.177108,0 -1.939265,1.0670195 -0.762157,1.0670194 -0.762157,2.718359 0,0.8976512 0.406484,1.3718821 0.414952,0.4657625 1.202514,0.4657625 1.177109,0 1.939265,-1.0670195 0.762157,-1.0754878 0.762157,-2.7352958 0,-0.8891829 -0.414952,-1.3549453 -0.406484,-0.4657625 -1.194046,-0.4657625 z m 0.245584,-2.1679124 q 2.117102,0 3.328085,1.0754878 1.210982,1.0754878 1.210982,2.9300692 0,1.0754878 -0.381078,2.0916968 -0.381079,1.0077406 -1.109362,1.846113 -0.863777,0.99927216 -2.040886,1.50737665 -1.177109,0.50810449 -2.625207,0.50810449 -2.091696,0 -3.302679,-1.07548784 -1.202514,-1.0754878 -1.202514,-2.9300692 0,-1.0670194 0.389547,-2.0832284 0.389547,-1.0246774 1.11783,-1.8715182 0.846841,-0.9823354 2.015481,-1.4904398 1.177109,-0.5081045 2.599801,-0.5081045 z"
               id="path3957"
               inkscape:connector-curvature="0" />
            <path
               d="m 34.009855,-7.9094932 q 0.702878,-0.872246 1.592061,-1.3380085 0.897651,-0.4657624 1.86305,-0.4657624 1.270261,0 1.998544,0.7028778 0.736752,0.6944095 0.736752,1.9138603 0,0.2540522 -0.04234,0.5843201 -0.03387,0.3217996 -0.11009,0.7367516 L 38.921532,0 h -3.057095 l 0.95693,-4.9455504 0.0254,-0.1270261 q 0.220179,-1.0500826 0.220179,-1.3464769 0,-0.4657624 -0.270989,-0.7367515 -0.262521,-0.270989 -0.719815,-0.270989 -0.872246,0 -1.481971,0.7198147 -0.601257,0.7113462 -0.863778,2.0408863 L 32.81581,0 h -3.057096 l 0.973867,-4.9455504 q 0.127027,-0.6351306 0.177837,-0.9569301 0.05081,-0.3302679 0.05081,-0.5165729 0,-0.4742308 -0.26252,-0.7367515 -0.262521,-0.270989 -0.728283,-0.270989 -0.838373,0 -1.473503,0.7452199 -0.626663,0.7367515 -0.872246,2.0154811 L 26.710088,0 h -3.040159 l 1.846113,-9.4846171 h 3.048627 l -0.279458,1.3888189 q 0.711347,-0.8044988 1.515846,-1.2109823 0.804498,-0.4064836 1.676744,-0.4064836 0.982336,0 1.685214,0.5081045 0.702877,0.499636 0.84684,1.2956664 z"
               id="path3959"
               inkscape:connector-curvature="0" />
            <path
               d="m 42.720149,-1.3718821 -0.973867,4.979424 h -3.048627 l 2.548991,-13.092159 h 3.048627 l -0.279457,1.3888189 q 0.694409,-0.829904 1.456566,-1.2194508 0.762157,-0.3980151 1.668276,-0.3980151 1.600529,0 2.532054,1.0162089 0.931525,1.016209 0.931525,2.7691695 0,1.0924247 -0.330268,2.1255704 -0.321799,1.0331458 -0.931525,1.8799867 -0.770625,1.06701938 -1.744492,1.61746591 -0.965398,0.55044653 -2.07476,0.55044653 -0.973867,0 -1.659808,-0.38954678 -0.677472,-0.39801518 -1.143235,-1.22791916 z m 3.184122,-6.1395959 q -1.168641,0 -1.913861,1.0839562 -0.736751,1.0754879 -0.736751,2.8030431 0,0.7790936 0.414952,1.2279192 0.42342,0.4403572 1.16864,0.4403572 1.143235,0 1.888455,-1.058551 0.74522,-1.0670194 0.74522,-2.7268274 0,-0.8637776 -0.406483,-1.3126033 -0.398016,-0.457294 -1.160172,-0.457294 z"
               id="path3961"
               inkscape:connector-curvature="0" />
            <path
               d="m 50.640335,-3.6922259 1.109362,-5.7923912 h 3.040158 l -0.95693,4.9370819 q -0.101621,0.4826993 -0.152431,0.8214356 -0.05081,0.3387363 -0.05081,0.5335097 0,0.5335097 0.296394,0.829904 0.296395,0.2963943 0.846841,0.2963943 0.939994,0 1.617466,-0.7282831 0.677473,-0.7282831 0.931525,-2.0239495 l 0.914588,-4.6660929 h 3.040159 L 59.439011,0 h -3.057095 l 0.279457,-1.3888189 q -0.779093,0.82143555 -1.634403,1.22791915 -0.855309,0.40648359 -1.80377,0.40648359 -1.295667,0 -2.007013,-0.68594106 -0.711346,-0.68594108 -0.711346,-1.93926548 0,-0.2963943 0.03387,-0.6266622 0.03387,-0.3302679 0.101621,-0.685941 z"
               id="path3963"
               inkscape:connector-curvature="0" />
            <path
               d="m 66.301199,-12.177571 -0.516573,2.6929539 h 3.099438 l -0.431889,2.1679125 h -3.099438 l -0.779093,4.0140254 q -0.03387,0.1354946 -0.05081,0.228647 -0.0085,0.093152 -0.0085,0.1778366 0,0.3895468 0.254052,0.558915 0.262521,0.1693681 0.872246,0.1693681 h 1.566656 L 66.77543,0 h -2.548991 q -1.371882,0 -2.091697,-0.57585175 -0.719814,-0.57585175 -0.719814,-1.65980795 0,-0.2371155 0.0254,-0.5081045 0.0254,-0.2709891 0.07621,-0.5504466 l 0.779094,-4.0224938 h -1.49044 l 0.414952,-2.1679125 h 1.507377 l 0.525041,-2.6929539 z"
               id="path3965"
               inkscape:connector-curvature="0" />
            <path
               d="m 77.384315,-4.3866354 -0.101621,0.4826992 h -7.096526 q 0,0.05081 -0.0085,0.1524314 -0.0085,0.093153 -0.0085,0.1439629 0,0.9230565 0.550446,1.3803506 0.558915,0.457294 1.668277,0.457294 0.95693,0 2.015481,-0.2879259 1.067019,-0.2879259 2.23566,-0.8553092 l -0.465763,2.35421746 q -1.109361,0.40648359 -2.210254,0.60125698 -1.092425,0.2032418 -2.227192,0.2032418 -2.218722,0 -3.429705,-1.02467739 -1.202514,-1.02467735 -1.202514,-2.89619555 0,-1.0839563 0.381079,-2.1001652 0.389546,-1.0246774 1.126298,-1.8715182 0.872246,-1.016209 2.083228,-1.5412503 1.219451,-0.5250413 2.701422,-0.5250413 1.922329,0 3.048627,1.0246774 1.134767,1.0246773 1.134767,2.760701 0,0.3387363 -0.05081,0.7198147 -0.04234,0.37261 -0.143963,0.8214356 z m -2.862322,-1.3888189 q 0.02541,-0.1100894 0.03387,-0.2201787 0.01694,-0.1185577 0.01694,-0.228647 0,-0.6774726 -0.406483,-1.0754878 -0.406484,-0.3980152 -1.100893,-0.3980152 -0.889183,0 -1.515846,0.4911677 -0.618193,0.4826992 -0.948461,1.431161 z"
               id="path3967"
               inkscape:connector-curvature="0" />
            <path
               d="m 85.349294,-6.9017526 q -0.313331,-0.1778366 -0.694409,-0.2709891 -0.381079,-0.093152 -0.821436,-0.093152 -1.160172,0 -1.930797,0.7452199 -0.762157,0.74522 -1.033146,2.1509757 L 80.005728,0 H 76.96557 l 1.846113,-9.4846171 h 3.048627 l -0.330268,1.6259343 q 0.601257,-0.8976512 1.498908,-1.3718821 0.90612,-0.4826992 2.007013,-0.4826992 0.1609,0 0.364141,0.016937 0.203242,0.016937 0.4827,0.05081 z"
               id="path3969"
               inkscape:connector-curvature="0" />
            <path
               d="m 99.53401,-12.245318 -0.525041,2.6760168 q -0.95693,-0.4742308 -1.888455,-0.7028778 -0.931525,-0.237115 -1.820708,-0.237115 -1.219451,0 -1.905392,0.381078 -0.677473,0.3810782 -0.677473,1.0585509 0,0.4318888 0.296395,0.6774726 0.304862,0.2371155 1.244856,0.4657625 l 1.338008,0.3302679 q 1.676745,0.4234204 2.455839,1.2279192 0.787562,0.7960303 0.787562,2.0662916 0,2.0578231 -1.566656,3.30267914 -1.558187,1.244856 -4.191862,1.244856 -1.227919,0 -2.44737,-0.22864702 -1.210982,-0.22864702 -2.371154,-0.67747265 l 0.516573,-2.75223267 q 1.126298,0.6520674 2.184849,0.973867 1.067019,0.3217995 2.100165,0.3217995 1.11783,0 1.81224,-0.4572941 0.702877,-0.457294 0.702877,-1.1686403 0,-0.4657624 -0.313331,-0.7198147 -0.313331,-0.2625206 -1.371882,-0.5335097 l -1.32954,-0.3302679 q -1.473503,-0.3641416 -2.193318,-1.1517035 -0.719814,-0.787562 -0.719814,-2.0408864 0,-1.9731394 1.507376,-3.1587164 1.515845,-1.194045 4.073305,-1.194045 1.024677,0 2.100165,0.160899 1.083956,0.152432 2.201786,0.465763 z"
               id="path3971"
               inkscape:connector-curvature="0" />
            <path
               d="m 109.3159,-9.1882228 -0.4827,2.4727751 q -0.60972,-0.4064835 -1.20251,-0.6181937 -0.59279,-0.2117103 -1.16017,-0.2117103 -1.48198,0 -2.42197,0.9992722 -0.93999,0.9908038 -0.93999,2.5405225 0,0.9908037 0.58432,1.5412502 0.58432,0.5419782 1.65134,0.5419782 0.71134,0 1.39728,-0.2117103 0.68595,-0.2117102 1.30414,-0.6266622 l -0.46576,2.48124363 q -0.75369,0.26252065 -1.51585,0.38954678 -0.76215,0.13549453 -1.53278,0.13549453 -2.23566,0 -3.44664,-0.99927216 -1.202516,-1.00774058 -1.202516,-2.85385358 0,-1.1601719 0.440356,-2.2525965 0.44883,-1.0924247 1.27873,-1.9646707 0.92306,-0.9569301 2.1171,-1.4226926 1.19405,-0.4657624 2.75224,-0.4657624 0.71981,0 1.43116,0.1354945 0.71134,0.1270261 1.41422,0.3895468 z"
               id="path3973"
               inkscape:connector-curvature="0" />
            <path
               d="m 111.26099,-9.4846171 h 3.04863 L 112.45504,0 h -3.04016 z m 0.71135,-3.6922259 h 3.04863 l -0.4827,2.472775 h -3.0571 z"
               id="path3975"
               inkscape:connector-curvature="0" />
            <path
               d="m 124.28059,-4.3866354 -0.10162,0.4826992 h -7.09652 q 0,0.05081 -0.008,0.1524314 -0.008,0.093153 -0.008,0.1439629 0,0.9230565 0.55045,1.3803506 0.55891,0.457294 1.66827,0.457294 0.95693,0 2.01548,-0.2879259 1.06702,-0.2879259 2.23566,-0.8553092 l -0.46576,2.35421746 q -1.10936,0.40648359 -2.21025,0.60125698 -1.09243,0.2032418 -2.2272,0.2032418 -2.21872,0 -3.4297,-1.02467739 -1.20251,-1.02467735 -1.20251,-2.89619555 0,-1.0839563 0.38107,-2.1001652 0.38955,-1.0246774 1.1263,-1.8715182 0.87225,-1.016209 2.08323,-1.5412503 1.21945,-0.5250413 2.70142,-0.5250413 1.92233,0 3.04863,1.0246774 1.13477,1.0246773 1.13477,2.760701 0,0.3387363 -0.0508,0.7198147 -0.0423,0.37261 -0.14397,0.8214356 z m -2.86232,-1.3888189 q 0.0254,-0.1100894 0.0339,-0.2201787 0.0169,-0.1185577 0.0169,-0.228647 0,-0.6774726 -0.40648,-1.0754878 -0.40649,-0.3980152 -1.1009,-0.3980152 -0.88918,0 -1.51584,0.4911677 -0.61819,0.4826992 -0.94846,1.431161 z"
               id="path3977"
               inkscape:connector-curvature="0" />
            <path
               d="M 134.51511,-5.7754543 133.38881,0 h -3.04016 l 0.95693,-4.9455504 q 0.10162,-0.4826992 0.15243,-0.8129671 0.0593,-0.3387364 0.0593,-0.5335097 0,-0.5419782 -0.30486,-0.8383725 -0.2964,-0.2963942 -0.84684,-0.2963942 -0.94,0 -1.61747,0.7367515 -0.669,0.7282831 -0.93153,2.0239495 L 126.90201,0 h -3.04016 l 1.84611,-9.4846171 h 3.04863 l -0.27946,1.3888189 q 0.83837,-0.8214356 1.68521,-1.2194508 0.84684,-0.3980151 1.7699,-0.3980151 1.3126,0 2.02395,0.685941 0.71135,0.6859411 0.71135,1.9307971 0,0.270989 -0.0423,0.601257 -0.0339,0.3302679 -0.11009,0.7198147 z"
               id="path3979"
               inkscape:connector-curvature="0" />
            <path
               d="m 144.0025,-9.1882228 -0.4827,2.4727751 q -0.60972,-0.4064835 -1.20251,-0.6181937 -0.59279,-0.2117103 -1.16017,-0.2117103 -1.48198,0 -2.42197,0.9992722 -0.93999,0.9908038 -0.93999,2.5405225 0,0.9908037 0.58432,1.5412502 0.58432,0.5419782 1.65134,0.5419782 0.71134,0 1.39728,-0.2117103 0.68595,-0.2117102 1.30414,-0.6266622 l -0.46576,2.48124363 q -0.75369,0.26252065 -1.51585,0.38954678 -0.76216,0.13549453 -1.53278,0.13549453 -2.23566,0 -3.44664,-0.99927216 -1.20252,-1.00774058 -1.20252,-2.85385358 0,-1.1601719 0.44036,-2.2525965 0.44883,-1.0924247 1.27873,-1.9646707 0.92306,-0.9569301 2.1171,-1.4226926 1.19405,-0.4657624 2.75224,-0.4657624 0.71981,0 1.43116,0.1354945 0.71134,0.1270261 1.41422,0.3895468 z"
               id="path3981"
               inkscape:connector-curvature="0" />
            <path
               d="m 154.47327,-4.3866354 -0.10162,0.4826992 h -7.09652 q 0,0.05081 -0.008,0.1524314 -0.008,0.093153 -0.008,0.1439629 0,0.9230565 0.55045,1.3803506 0.55891,0.457294 1.66827,0.457294 0.95693,0 2.01548,-0.2879259 1.06702,-0.2879259 2.23566,-0.8553092 l -0.46576,2.35421746 q -1.10936,0.40648359 -2.21025,0.60125698 -1.09243,0.2032418 -2.22719,0.2032418 -2.21873,0 -3.42971,-1.02467739 -1.20251,-1.02467735 -1.20251,-2.89619555 0,-1.0839563 0.38107,-2.1001652 0.38955,-1.0246774 1.1263,-1.8715182 0.87225,-1.016209 2.08323,-1.5412503 1.21945,-0.5250413 2.70142,-0.5250413 1.92233,0 3.04863,1.0246774 1.13477,1.0246773 1.13477,2.760701 0,0.3387363 -0.0508,0.7198147 -0.0423,0.37261 -0.14397,0.8214356 z m -2.86232,-1.3888189 q 0.0254,-0.1100894 0.0339,-0.2201787 0.0169,-0.1185577 0.0169,-0.228647 0,-0.6774726 -0.40648,-1.0754878 -0.40649,-0.3980152 -1.10089,-0.3980152 -0.88919,0 -1.51585,0.4911677 -0.61819,0.4826992 -0.94846,1.431161 z"
               id="path3983"
               inkscape:connector-curvature="0" />
          </g>
        </g>
      </g>
    </g>
  </g>
</svg>
