<?xml version="1.0" encoding="UTF-8" standalone="no"?>
<!-- Created with Inkscape (http://www.inkscape.org/) -->

<svg
   xmlns:dc="http://purl.org/dc/elements/1.1/"
   xmlns:cc="http://creativecommons.org/ns#"
   xmlns:rdf="http://www.w3.org/1999/02/22-rdf-syntax-ns#"
   xmlns:svg="http://www.w3.org/2000/svg"
   xmlns="http://www.w3.org/2000/svg"
   xmlns:sodipodi="http://sodipodi.sourceforge.net/DTD/sodipodi-0.dtd"
   xmlns:inkscape="http://www.inkscape.org/namespaces/inkscape"
   width="181.35776mm"
   height="53.651466mm"
   viewBox="0 0 181.35776 53.651466"
   version="1.1"
   id="svg8"
   inkscape:version="0.92.4 (5da689c313, 2019-01-14)"
   sodipodi:docname="drawing.svg">
  <defs
     id="defs2" />
  <sodipodi:namedview
     id="base"
     pagecolor="#ffffff"
     bordercolor="#666666"
     borderopacity="1.0"
     inkscape:pageopacity="0.0"
     inkscape:pageshadow="2"
     inkscape:zoom="0.35"
     inkscape:cx="339.86618"
     inkscape:cy="-30.039979"
     inkscape:document-units="mm"
     inkscape:current-layer="layer1"
     showgrid="false"
     inkscape:window-width="1920"
     inkscape:window-height="1016"
     inkscape:window-x="0"
     inkscape:window-y="27"
     inkscape:window-maximized="1"
     inkscape:pagecheckerboard="false"
     fit-margin-top="0"
     fit-margin-left="0"
     fit-margin-right="0"
     fit-margin-bottom="0" />
  <metadata
     id="metadata5">
    <rdf:RDF>
      <cc:Work
         rdf:about="">
        <dc:format>image/svg+xml</dc:format>
        <dc:type
           rdf:resource="http://purl.org/dc/dcmitype/StillImage" />
        <dc:title></dc:title>
      </cc:Work>
    </rdf:RDF>
  </metadata>
  <g
     inkscape:label="Layer 1"
     inkscape:groupmode="layer"
     id="layer1"
     transform="translate(-17.42231,-87.233788)">
    <g
       transform="matrix(0.35277777,0,0,-0.35277777,17.42231,140.88529)"
       inkscape:label="ink_ext_XXXXXX"
       id="g37">
      <g
         transform="scale(0.1)"
         id="g39">
        <path
           inkscape:connector-curvature="0"
           id="path41"
           style="fill:#0c2950;fill-opacity:1;fill-rule:nonzero;stroke:none"
           d="m 1520.29,1145.71 c -22.16,0 -45.38,-2.23 -67.54,-2.23 -36.94,0 -74.93,1.12 -111.87,2.23 v -28.89 c 34.83,0 58.05,-4.44 72.82,-17.78 14.77,-13.32 20.06,-37.77 20.06,-76.64 0,-152.197 -7.39,-303.283 -11.61,-455.478 -4.23,-148.852 -50.66,-167.742 -125.6,-167.742 v -28.879 c 46.44,1.109 93.93,2.219 140.37,2.219 43.27,0 87.59,-2.219 130.86,-2.219 v 28.879 c -42.21,0 -68.6,3.34 -85.48,18.89 -16.89,15.551 -22.17,45.551 -22.17,99.969 0,15.566 1.06,55.555 1.06,69.992 l 8.44,402.153 h 2.12 C 1572,780.223 1673.32,572.484 1763.02,360.301 h 21.11 c 8.44,28.89 29.54,83.32 41.15,109.98 l 249.06,544.349 h 2.12 l 7.38,-529.9 c 0,-43.332 -8.44,-64.441 -27.43,-75.55 -17.94,-10 -44.33,-10 -81.27,-10 v -28.879 c 51.72,1.109 102.38,2.219 154.09,2.219 58.04,0 116.08,-2.219 174.13,-2.219 v 28.879 c -105.54,0 -112.92,24.441 -115.03,107.75 -4.22,167.761 -13.72,354.379 -13.72,529.91 0,36.66 6.33,55.55 20.05,66.65 13.72,11.12 37.99,13.33 73.87,13.33 v 28.89 c -30.6,0 -62.26,-2.23 -92.87,-2.23 -28.49,0 -58.04,1.12 -86.53,2.23 -87.6,-211.073 -189.97,-415.483 -284.95,-623.214 l -283.89,623.214 v 0" />
        <path
           inkscape:connector-curvature="0"
           id="path43"
           style="fill:#0c2950;fill-opacity:1;fill-rule:evenodd;stroke:none"
           d="m 2723.07,1033.51 h 2.11 L 2838.1,706.895 h -217.4 z m 54.87,143.3 h -17.93 c -14.79,-25.55 -39.05,-37.76 -61.21,-48.88 2.11,-8.89 2.11,-17.77 2.11,-28.89 0,-33.32 -13.72,-74.42 -22.17,-99.974 L 2543.66,602.484 c -13.72,-41.113 -26.39,-84.445 -43.28,-124.425 -26.37,-62.207 -37.98,-71.098 -102.36,-78.879 v -28.879 c 42.21,1.109 85.48,2.219 127.69,2.219 41.16,0 83.38,-2.219 124.54,-2.219 v 28.879 h -24.28 c -36.93,2.23 -71.76,0 -71.76,52.218 0,34.422 14.77,85.536 28.49,132.196 l 23.22,77.769 h 248.01 l 52.77,-161.082 c 7.38,-21.109 15.83,-52.211 15.83,-64.453 0,-31.09 -31.66,-36.648 -58.05,-36.648 h -19 v -28.879 c 51.72,1.109 102.38,2.219 154.09,2.219 40.09,0 81.25,-2.219 121.36,-2.219 v 28.879 c -33.77,0 -65.42,7.781 -81.27,30 -16.87,24.441 -45.38,118.863 -60.14,162.179 l -201.58,585.451 v 0" />
        <path
           inkscape:connector-curvature="0"
           id="path45"
           style="fill:#0c2950;fill-opacity:1;fill-rule:nonzero;stroke:none"
           d="m 3312.18,479.172 c 0,-77.762 -40.1,-78.883 -96.04,-79.992 v -28.879 c 52.77,1.109 102.36,2.219 153.02,2.219 46.44,0 91.82,-2.219 142.48,-2.219 v 28.879 c -55.94,1.109 -96.04,2.23 -96.04,79.992 v 557.668 c 0,77.77 40.1,78.87 96.04,79.98 v 28.89 c -52.77,-1.11 -101.32,-2.23 -149.85,-2.23 -47.51,0 -96.05,1.12 -145.65,2.23 v -28.89 c 55.94,-1.11 96.04,-2.21 96.04,-79.98 v -557.668 0" />
        <path
           inkscape:connector-curvature="0"
           id="path47"
           style="fill:#0c2950;fill-opacity:1;fill-rule:nonzero;stroke:none"
           d="m 4348.32,1002.39 c 0,108.88 34.83,114.43 99.2,114.43 v 28.89 c -41.16,0 -81.26,-2.23 -122.42,-2.23 -48.55,0 -98.14,1.12 -146.69,2.23 v -28.89 c 105.54,-1.11 127.69,-32.21 127.69,-134.418 v -442.14 c -71.75,82.207 -170.96,192.199 -260.67,296.617 -120.3,139.969 -218.45,241.061 -261.73,308.831 -28.49,0 -58.03,-2.23 -86.54,-2.23 -32.72,0 -64.37,1.12 -97.08,2.23 v -28.89 c 90.76,0 129.81,-34.44 129.81,-129.976 V 540.262 c 0,-141.082 -48.55,-141.082 -112.93,-141.082 v -28.879 c 46.44,1.109 93.92,2.219 140.36,2.219 46.44,0 93.93,-2.219 140.37,-2.219 v 28.879 c -113.99,0 -125.58,31.109 -125.58,184.414 v 414.363 l 551.93,-637.656 h 24.28 v 642.089 0" />
        <path
           inkscape:connector-curvature="0"
           id="path49"
           style="fill:#0c2950;fill-opacity:1;fill-rule:nonzero;stroke:none"
           d="m 4750.38,1110.16 h 123.47 c 105.54,0 153.03,-31.11 168.85,-135.531 l 21.12,5.547 v 165.534 c -102.37,-2.23 -202.62,-2.23 -303.94,-2.23 -70.71,0 -142.48,0 -213.19,2.23 v -28.89 c 83.38,-3.33 100.26,-7.77 100.26,-98.87 V 524.715 c 0,-107.754 -8.44,-125.535 -100.26,-125.535 v -28.879 c 78.1,2.219 156.2,2.219 234.28,2.219 105.55,0 211.08,-2.219 316.61,-2.219 10.57,57.769 26.39,114.429 43.27,169.961 l -25.33,4.437 c -41.16,-118.847 -87.6,-133.301 -191.01,-138.847 h -65.44 c -104.47,0 -108.69,31.097 -108.69,154.414 v 188.851 h 112.91 c 81.27,0 115.04,0 115.04,-106.644 h 21.11 c 1.06,35.547 -4.22,87.754 -4.22,123.3 0,39.997 2.11,99.993 4.22,124.422 h -21.11 c -3.16,-25.55 -3.16,-95.535 -88.65,-95.535 h -139.3 v 315.5 0" />
        <path
           inkscape:connector-curvature="0"
           id="path51"
           style="fill:#0c2950;fill-opacity:1;fill-rule:nonzero;stroke:none"
           d="m 1407.5,1336.19 c 0,-28.04 -1.8,-30.15 -15.37,-32.27 l -13.57,-1.5 c -2.42,-1.81 -2.42,-8.74 0,-10.56 21.1,0.6 36.78,0.91 51.26,0.91 13.57,0 28.64,-0.31 48.24,-0.91 2.11,1.82 2.11,8.75 0,10.56 l -12.06,1.5 c -13.56,2.12 -15.38,4.23 -15.38,32.27 v 132.97 c 0,7.84 0.91,8.75 8.15,8.75 h 18.09 c 22.61,0 26.83,-14.17 31.95,-33.47 1.52,-2.41 9.65,-1.81 11.16,0.9 -0.6,17.19 1.52,41.61 4.53,51.87 -0.61,0.9 -2.72,2.1 -4.53,2.1 -1.8,0 -2.71,-0.29 -3.91,-0.9 -2.72,-6.33 -7.25,-6.63 -27.15,-6.63 h -112.17 c -22.91,0 -23.82,1.2 -25.32,6.33 -1.21,0.91 -2.72,1.2 -4.22,1.2 -1.51,0 -3.02,-0.6 -4.22,-1.51 -2.11,-11.75 -3.62,-30.45 -9.96,-51.25 1.82,-3.92 7.54,-4.52 11.16,-2.72 9.05,22.01 15.38,34.08 37.39,34.08 h 18.7 c 7.23,0 7.23,-1.5 7.23,-8.75 v -132.97 0" />
        <path
           inkscape:connector-curvature="0"
           id="path53"
           style="fill:#0c2950;fill-opacity:1;fill-rule:nonzero;stroke:none"
           d="m 1729.24,1388.36 c 12.67,0 12.67,-0.3 12.67,-8.75 v -43.42 c 0,-28.04 -1.51,-30.15 -15.38,-32.87 l -6.63,-0.9 c -2.42,-1.81 -2.42,-8.74 0,-10.56 14.47,0.6 29.24,0.91 44.32,0.91 13.87,0 28.64,-0.31 43.72,-0.91 2.41,1.82 2.41,8.75 0,10.56 l -7.24,1.2 c -13.86,2.42 -15.68,4.53 -15.68,32.57 v 112.17 c 0,28.05 1.82,30.15 15.68,32.87 l 6.04,0.9 c 2.4,1.81 2.4,8.75 0,10.56 -13.88,-0.61 -27.75,-0.91 -42.52,-0.91 -14.48,0 -29.25,0.3 -45.83,0.91 -2.42,-1.81 -2.42,-8.75 0,-10.56 l 8.14,-1.21 c 13.87,-2.41 15.38,-4.51 15.38,-32.56 v -34.98 c 0,-8.74 0,-9.05 -12.67,-9.05 h -62.71 c -12.37,0 -12.67,0.31 -12.67,9.05 v 34.98 c 0,28.05 1.81,30.15 14.78,32.87 l 6.32,0.9 c 2.42,1.81 2.42,8.75 0,10.56 -13.26,-0.61 -28.34,-0.91 -41.91,-0.91 -14.47,0 -30.15,0.3 -44.93,0.91 -2.41,-1.81 -2.41,-8.75 0,-10.56 l 7.25,-0.9 c 13.56,-2.72 15.37,-4.82 15.37,-32.87 v -112.17 c 0,-28.04 -1.81,-30.15 -15.37,-32.87 l -7.25,-0.9 c -2.41,-1.81 -2.41,-8.74 0,-10.56 15.38,0.6 30.46,0.91 44.93,0.91 13.57,0 28.65,-0.31 45.84,-0.91 2.41,1.82 2.41,8.75 0,10.56 l -9.65,1.2 c -13.57,2.42 -15.38,4.53 -15.38,32.57 v 43.42 c 0,8.45 0.3,8.75 12.67,8.75 h 62.71 v 0" />
        <path
           inkscape:connector-curvature="0"
           id="path55"
           style="fill:#0c2950;fill-opacity:1;fill-rule:nonzero;stroke:none"
           d="m 1948.6,1466.15 c 0,11.15 0,11.76 9.94,11.76 h 24.13 c 14.77,0 23.81,-3.62 29.55,-9.35 3.92,-4.22 8.14,-13.26 11.45,-23.82 3.02,-2.71 9.95,-2.11 11.16,1.21 -1.51,20.2 -3.62,41.91 -3.92,46.74 -3.92,-0.61 -21.11,-0.91 -40.41,-0.91 h -63.92 c -14.48,0 -29.25,0.3 -43.42,0.91 -3.01,-1.81 -3.32,-8.75 -0.61,-10.56 l 7.54,-1.5 c 13.57,-2.42 15.39,-4.53 15.39,-31.97 v -112.47 c 0,-27.74 -1.82,-29.85 -15.39,-31.66 l -14.16,-2.11 c -2.42,-1.51 -2.42,-8.74 0,-10.56 22.61,0.6 37.38,0.91 51.86,0.91 h 39.2 c 24.73,0 53.66,-0.31 69.65,-0.91 4.22,8.14 11.45,32.57 12.66,48.25 -1.21,3.62 -8.74,4.83 -11.15,1.51 -16.59,-34.07 -26.84,-34.98 -53.08,-34.98 -22,0 -27.73,2.41 -31.65,7.84 -3.62,5.13 -4.82,14.77 -4.82,28.65 v 35.88 c 0,9.05 0.29,9.35 8.43,9.35 h 20.81 c 15.68,0 19,-2.41 22.31,-16.89 l 1.51,-7.54 c 2.11,-2.72 9.65,-2.41 11.16,0.3 -0.6,9.65 -0.91,20.5 -0.91,31.96 0,11.46 0.31,22.31 0.91,31.96 -1.51,2.71 -9.05,2.71 -11.16,0.31 l -1.51,-7.54 c -3.31,-14.47 -6.63,-16.59 -22.31,-16.59 h -20.81 c -8.14,0 -8.43,0.61 -8.43,9.05 v 52.77 0" />
        <path
           inkscape:connector-curvature="0"
           id="path57"
           style="fill:#0c2950;fill-opacity:1;fill-rule:nonzero;stroke:none"
           d="m 2262.76,1372.98 c 0,-32.87 6.63,-55.18 22.31,-68.14 16.29,-13.28 36.8,-16.89 59.71,-16.89 24.42,0 46.43,7.53 59.7,21.71 16.59,18.39 19.3,44.32 19.3,72.66 v 33.78 c 0,24.42 1.21,47.34 4.52,55.17 2.71,6.34 8.45,8.15 16.29,9.96 l 5.42,1.2 c 2.42,2.41 1.81,8.45 0,10.26 -11.46,-0.61 -22.62,-0.91 -33.77,-0.91 -12.36,0 -24.12,0.3 -40.4,0.91 -1.82,-1.81 -2.42,-7.85 0,-10.26 l 8.14,-1.51 c 8.14,-1.5 14.77,-3.31 17.49,-9.65 3.31,-7.83 4.52,-30.75 4.52,-55.17 v -36.49 c 0,-41.31 -11.76,-75.08 -50.36,-75.08 -45.83,0 -49.75,38.9 -49.75,74.18 v 69.65 c 0,28.05 1.81,30.15 15.38,32.87 l 7.24,1.2 c 2.4,1.81 2.4,8.45 0,10.26 -14.48,-0.61 -29.25,-0.91 -44.03,-0.91 -14.47,0 -29.55,0.3 -44.02,0.91 -3.32,-1.81 -3.02,-8.45 -0.6,-10.26 l 7.53,-1.51 c 13.57,-2.41 15.38,-4.51 15.38,-32.56 v -75.38 0" />
        <path
           inkscape:connector-curvature="0"
           id="path59"
           style="fill:#0c2950;fill-opacity:1;fill-rule:nonzero;stroke:none"
           d="m 2701.24,1416.1 c 0,24.42 1.2,47.03 4.51,55.17 2.72,6.34 8.46,8.15 16.3,9.96 l 5.42,0.9 c 2.41,2.42 1.82,8.75 0,10.56 -11.76,-0.61 -22.61,-0.91 -33.76,-0.91 -12.38,0 -24.13,0.3 -40.41,0.91 -1.82,-1.81 -2.43,-8.14 0,-10.56 l 8.14,-1.21 c 8.14,-1.5 14.76,-3.31 17.48,-9.65 3.32,-8.14 4.53,-30.75 4.53,-55.17 v -41.62 c 0,-5.42 0,-10.55 -1.21,-13.56 -6.93,6.94 -15.38,17.49 -28.94,33.17 l -25.33,29.84 c -27.14,32.27 -46.74,55.19 -49.75,68.76 -6.33,-0.61 -15.08,-0.91 -25.33,-0.91 -12.37,0 -27.44,0.3 -41.62,0.91 -3.01,-0.91 -3.31,-8.14 -1.2,-10.56 l 8.44,-1.21 c 10.55,-2.11 15.08,-5.12 17.19,-10.25 2.11,-4.22 2.11,-9.04 2.11,-25.63 v -76.58 c 0,-24.43 -1.21,-47.05 -4.22,-55.19 -2.71,-6.33 -8.45,-8.14 -16.59,-9.95 l -5.12,-0.9 c -2.41,-2.42 -1.81,-8.74 0,-10.56 11.46,0.6 22.61,0.91 33.77,0.91 12.06,0 24.11,-0.31 40.41,-0.91 1.8,1.82 2.41,8.14 0,10.56 l -8.45,1.2 c -7.85,1.51 -14.77,3.32 -17.49,9.65 -3.31,8.14 -4.52,30.76 -4.52,55.19 v 58.49 c 0,11.16 0,16.28 1.5,19.3 5.44,-4.52 15.69,-16.89 32.88,-38.6 l 69.65,-86.24 c 14.17,-17.49 24.12,-32.87 24.42,-32.87 7.23,0 15.69,3.32 17.8,6.94 -0.61,9.95 -0.61,28.95 -0.61,48.55 v 72.07 0" />
        <path
           inkscape:connector-curvature="0"
           id="path61"
           style="fill:#0c2950;fill-opacity:1;fill-rule:nonzero;stroke:none"
           d="m 2859.26,1447.75 c 0,28.35 1.8,30.46 15.67,32.88 l 8.44,1.5 c 2.42,1.81 2.42,8.75 0,10.56 -16.28,-0.61 -31.36,-0.91 -45.53,-0.91 -14.47,0 -29.55,0.3 -45.83,0.91 -2.41,-1.81 -2.41,-8.75 0,-10.56 l 8.45,-1.5 c 13.86,-2.42 15.67,-4.53 15.67,-32.88 V 1336.8 c 0,-28.35 -1.81,-30.46 -15.67,-32.88 l -8.45,-1.5 c -2.41,-1.81 -2.41,-8.74 0,-10.56 16.28,0.6 31.36,0.91 45.83,0.91 14.17,0 28.95,-0.31 45.23,-0.91 2.41,1.82 2.72,8.75 0.3,10.56 l -8.44,1.5 c -13.87,2.42 -15.67,4.53 -15.67,32.88 v 110.95 0" />
        <path
           inkscape:connector-curvature="0"
           id="path63"
           style="fill:#0c2950;fill-opacity:1;fill-rule:nonzero;stroke:none"
           d="m 3103.2,1419.71 c 10.54,24.43 18.39,40.71 25.03,50.67 3.9,6.32 8.14,8.74 16.58,10.54 l 7.84,1.51 c 2.11,1.81 1.8,9.05 -0.61,10.26 -8.75,-0.61 -17.78,-0.91 -28.05,-0.91 -11.45,0 -22.9,0.3 -37.08,0.91 -3.62,-1.51 -3.62,-7.85 -1.2,-10.26 l 8.74,-2.11 c 7.23,-1.51 8.14,-3.02 8.14,-5.12 0,-1.81 -0.91,-5.13 -3.02,-10.86 -3.61,-10.25 -15.97,-44.02 -23.81,-63.02 l -11.16,-28.34 c -3.62,-9.05 -7.23,-17.19 -9.66,-22.32 -2.11,5.13 -5.12,12.06 -9.34,23.22 l -26.53,67.85 c -7.24,18.08 -12.07,30.75 -12.07,33.17 0,2.71 2.11,4.52 7.55,5.73 l 9.05,1.8 c 1.79,2.71 2.11,8.45 -0.32,10.26 -18.39,-0.61 -31.34,-0.91 -45.22,-0.91 -15.68,0 -25.64,0.6 -41.01,0.91 -2.71,-1.51 -3.61,-6.94 -1.21,-10.26 l 8.46,-2.11 c 14.47,-3.62 13.86,-2.41 26.22,-32.87 l 48.84,-122.72 c 4.24,-10.25 9.36,-26.23 12.68,-34.37 1.81,-1.51 4.51,-2.41 8.14,-2.41 4.51,0 8.14,0.9 10.54,2.41 6.94,16.88 15.08,40.7 30.46,77.19 l 22.02,52.16 v 0" />
        <path
           inkscape:connector-curvature="0"
           id="path65"
           style="fill:#0c2950;fill-opacity:1;fill-rule:nonzero;stroke:none"
           d="m 3266.64,1466.15 c 0,11.15 0,11.76 9.96,11.76 h 24.12 c 14.77,0 23.82,-3.62 29.55,-9.35 3.92,-4.22 8.14,-13.26 11.45,-23.82 3.02,-2.71 9.96,-2.11 11.16,1.21 -1.5,20.2 -3.62,41.91 -3.92,46.74 -3.92,-0.61 -21.11,-0.91 -40.41,-0.91 h -63.93 c -14.46,0 -29.23,0.3 -43.42,0.91 -3,-1.81 -3.31,-8.75 -0.59,-10.56 l 7.53,-1.5 c 13.58,-2.42 15.38,-4.53 15.38,-31.97 v -112.47 c 0,-27.74 -1.8,-29.85 -15.38,-31.66 l -14.16,-2.11 c -2.42,-1.51 -2.42,-8.74 0,-10.56 22.61,0.6 37.38,0.91 51.85,0.91 h 39.2 c 24.74,0 53.68,-0.31 69.66,-0.91 4.22,8.14 11.46,32.57 12.66,48.25 -1.2,3.62 -8.74,4.83 -11.16,1.51 -16.58,-34.07 -26.83,-34.98 -53.06,-34.98 -22.02,0 -27.74,2.41 -31.66,7.84 -3.62,5.13 -4.83,14.77 -4.83,28.65 v 35.88 c 0,9.05 0.3,9.35 8.44,9.35 h 20.81 c 15.68,0 19,-2.41 22.32,-16.89 l 1.5,-7.54 c 2.11,-2.72 9.65,-2.41 11.15,0.3 -0.59,9.65 -0.9,20.5 -0.9,31.96 0,11.46 0.31,22.31 0.9,31.96 -1.5,2.71 -9.04,2.71 -11.15,0.31 l -1.5,-7.54 c -3.32,-14.47 -6.64,-16.59 -22.32,-16.59 h -20.81 c -8.14,0 -8.44,0.61 -8.44,9.05 v 52.77 0" />
        <path
           inkscape:connector-curvature="0"
           id="path67"
           style="fill:#0c2950;fill-opacity:1;fill-rule:evenodd;stroke:none"
           d="m 3494.84,1463.44 c 0.61,14.47 0.61,15.37 12.97,15.37 23.53,0 39.5,-17.48 39.5,-44.61 0,-17.8 -5.72,-27.45 -10.84,-32.58 -5.74,-5.73 -12.06,-8.44 -22.92,-8.44 -17.8,0 -18.71,0.91 -18.71,11.46 z m -41.3,-127.25 c 0,-27.74 -1.81,-29.85 -15.37,-32.27 l -8.14,-1.5 c -2.43,-1.51 -2.43,-8.74 0,-10.56 15.67,0.6 28.93,0.91 44.01,0.91 14.47,0 28.35,-0.31 44.33,-0.91 2.11,1.82 2.11,9.05 0,10.56 l -8.15,1.5 c -13.57,2.42 -15.38,4.53 -15.38,32.27 v 37.08 c 0,6.04 0.61,6.65 11.16,6.65 7.55,0 12.37,-2.43 15.98,-10.57 6.94,-15.97 13.88,-30.75 23.54,-46.72 13.26,-21.72 30.75,-31.67 58.48,-31.67 9.35,0 19,0.6 23.82,2.72 1.51,1.8 1.51,6.32 -1.21,7.84 -4.51,0.3 -12.36,2.1 -20.2,8.44 -14.47,12.36 -26.83,34.98 -46.74,75.38 -1.5,3.31 -1.5,5.12 1.52,6.63 13.87,6.94 31.95,18.4 31.95,45.23 0,19.3 -9.04,34.38 -26.53,44.63 -11.45,6.94 -33.47,10.86 -59.1,10.86 -28.64,0 -52.16,-1.21 -74.78,-2.72 -3.61,-1.51 -3.61,-9.05 -0.59,-10.55 l 8.14,-1.21 c 12.65,-1.8 13.26,-5.12 13.26,-35.28 v -106.74 0" />
        <path
           inkscape:connector-curvature="0"
           id="path69"
           style="fill:#0c2950;fill-opacity:1;fill-rule:nonzero;stroke:none"
           d="m 3814.59,1349.16 c 0,33.16 -23.83,50.65 -42.51,60.6 l -19.91,10.56 c -15.08,7.83 -27.44,20.5 -27.44,34.37 0,15.08 10.86,28.04 30.75,28.04 21.72,0 34.69,-22 39.82,-37.39 2.7,-3.01 10.25,-2.71 11.74,0.91 0,20.2 -3.01,36.48 -5.42,43.12 -3.62,0.6 -6.32,1.2 -10.25,2.41 -12.06,3.62 -24.42,4.82 -34.37,4.82 -43.72,0 -69.96,-23.51 -69.96,-57.59 0.3,-29.85 23.81,-47.94 45.53,-58.8 18.1,-9.04 41,-23.51 41,-47.94 0,-15.07 -10.25,-30.45 -32.56,-30.45 -25.63,0 -45.83,27.73 -51.86,47.34 -2.41,3.32 -9.35,3.01 -11.45,-0.91 0,-20.51 3.9,-42.21 9.64,-48.85 6.34,-3.62 23.51,-11.45 51.26,-11.45 45.54,0 75.99,24.12 75.99,61.21 v 0" />
        <path
           inkscape:connector-curvature="0"
           id="path71"
           style="fill:#0c2950;fill-opacity:1;fill-rule:nonzero;stroke:none"
           d="m 3951.85,1447.75 c 0,28.35 1.8,30.46 15.67,32.88 l 8.44,1.5 c 2.42,1.81 2.42,8.75 0,10.56 -16.28,-0.61 -31.34,-0.91 -45.53,-0.91 -14.47,0 -29.55,0.3 -45.83,0.91 -2.41,-1.81 -2.41,-8.75 0,-10.56 l 8.45,-1.5 c 13.86,-2.42 15.67,-4.53 15.67,-32.88 V 1336.8 c 0,-28.35 -1.81,-30.46 -15.67,-32.88 l -8.45,-1.5 c -2.41,-1.81 -2.41,-8.74 0,-10.56 16.28,0.6 31.36,0.91 45.83,0.91 14.19,0 28.95,-0.31 45.23,-0.91 2.41,1.82 2.72,8.75 0.3,10.56 l -8.44,1.5 c -13.87,2.42 -15.67,4.53 -15.67,32.88 v 110.95 0" />
        <path
           inkscape:connector-curvature="0"
           id="path73"
           style="fill:#0c2950;fill-opacity:1;fill-rule:nonzero;stroke:none"
           d="m 4113.77,1336.19 c 0,-28.04 -1.8,-30.15 -15.38,-32.27 l -13.56,-1.5 c -2.43,-1.81 -2.43,-8.74 0,-10.56 21.11,0.6 36.78,0.91 51.25,0.91 13.58,0 28.64,-0.31 48.25,-0.91 2.11,1.82 2.11,8.75 0,10.56 l -12.06,1.5 c -13.56,2.12 -15.38,4.23 -15.38,32.27 v 132.97 c 0,7.84 0.89,8.75 8.14,8.75 h 18.1 c 22.61,0 26.83,-14.17 31.95,-33.47 1.52,-2.41 9.64,-1.81 11.16,0.9 -0.61,17.19 1.52,41.61 4.53,51.87 -0.61,0.9 -2.72,2.1 -4.53,2.1 -1.81,0 -2.72,-0.29 -3.92,-0.9 -2.72,-6.33 -7.24,-6.63 -27.14,-6.63 h -112.17 c -22.92,0 -23.81,1.2 -25.33,6.33 -1.2,0.91 -2.71,1.2 -4.22,1.2 -1.51,0 -3.01,-0.6 -4.21,-1.51 -2.11,-11.75 -3.63,-30.45 -9.96,-51.25 1.82,-3.92 7.53,-4.52 11.16,-2.72 9.05,22.01 15.37,34.08 37.39,34.08 h 18.69 c 7.24,0 7.24,-1.5 7.24,-8.75 v -132.97 0" />
        <path
           inkscape:connector-curvature="0"
           id="path75"
           style="fill:#0c2950;fill-opacity:1;fill-rule:nonzero;stroke:none"
           d="m 4398.76,1357.3 c 0,17.18 3.02,24.72 10.85,38.89 l 19,34.38 c 14.47,26.23 22.02,37.09 26.53,42.82 3.32,4.22 9.05,6.03 14.47,7.24 l 7.85,1.5 c 2.42,2.11 2.42,9.35 -1.21,10.56 -8.73,-0.61 -18.09,-0.91 -29.55,-0.91 -10.86,0 -21.72,0.3 -33.76,0.91 -3.02,-1.51 -2.72,-9.05 -0.3,-10.56 l 6.92,-1.21 c 7.24,-1.2 10.25,-2.41 10.25,-4.22 0,-3.61 -4.22,-13.57 -15.67,-34.97 -8.14,-15.39 -16.58,-32.87 -25.33,-47.64 -3.62,7.53 -9.34,19.59 -13.88,29.55 l -14.17,32.26 c -6.33,14.17 -7.83,18.69 -7.83,21.1 0,0.3 1.8,1.51 7.24,2.72 l 10.25,2.41 c 2.72,2.42 2.11,9.35 -0.61,10.56 -10.25,-0.61 -25.63,-0.91 -44.02,-0.91 -17.8,0 -28.94,0.3 -42.52,0.91 -3.61,-0.91 -3.92,-8.14 -1.2,-10.56 l 10.25,-1.81 c 10.55,-2.11 13.27,-6.63 19.3,-18.99 l 35.88,-74.18 c 7.84,-15.98 8.14,-20.81 8.14,-35.88 v -15.08 c 0,-28.04 -1.82,-30.15 -15.38,-32.27 l -10.25,-1.5 c -2.41,-1.81 -2.41,-8.74 0,-10.56 17.8,0.6 32.86,0.91 47.35,0.91 14.47,0 29.25,-0.31 48.84,-0.91 2.11,1.82 2.11,8.75 0,10.56 l -12.06,1.5 c -13.56,2.12 -15.38,4.23 -15.38,32.27 v 21.11 0" />
        <path
           inkscape:connector-curvature="0"
           id="path77"
           style="fill:#0c2950;fill-opacity:1;fill-rule:evenodd;stroke:none"
           d="m 4818.76,1389.25 c 0,-48.84 -15.38,-87.43 -54.88,-87.43 -49.15,0 -62.12,59.1 -62.12,95.89 0,50.35 19.9,85.02 56.99,85.02 37.4,0 60.01,-41.91 60.01,-93.48 z m -57.6,107.35 c -63.02,0 -107.65,-46.13 -107.65,-105.83 0,-63.03 44.02,-102.82 104.63,-102.82 64.83,0 108.87,39.5 108.87,105.23 0,61.21 -43.13,103.42 -105.85,103.42 v 0" />
        <path
           inkscape:connector-curvature="0"
           id="path79"
           style="fill:#0c2950;fill-opacity:1;fill-rule:nonzero;stroke:none"
           d="m 5008.23,1465.55 c 0,11.75 0,12.36 9.96,12.36 h 23.51 c 15.38,0 24.44,-3.62 29.57,-9.95 3.01,-3.92 5.42,-11.16 8.73,-23.52 3.61,-2.41 10.25,-2.11 11.46,1.21 -0.6,20.19 -0.6,41.91 -0.6,47.04 -4.22,-0.61 -21.4,-0.91 -40.7,-0.91 h -63.33 c -14.47,0 -29.55,0.3 -42.51,0.91 -3.32,-1.21 -3.32,-8.75 -0.61,-10.56 l 6.04,-0.9 c 13.56,-2.72 15.37,-4.82 15.37,-32.87 v -112.17 c 0,-28.04 -1.81,-30.15 -15.37,-32.27 l -9.96,-1.5 c -2.4,-1.81 -2.4,-8.74 0,-10.56 18.1,0.6 33.18,0.91 47.04,0.91 14.47,0 29.25,-0.31 47.94,-0.91 2.12,1.82 2.12,8.75 0,10.56 l -11.16,1.5 c -13.56,2.12 -15.38,4.23 -15.38,32.27 v 40.71 c 0,8.14 0.32,9.05 8.44,9.05 h 23.24 c 15.97,0 18.98,-2.42 22.31,-16.89 l 1.5,-7.24 c 2.11,-2.71 9.66,-2.41 11.45,0.3 -0.59,9.05 -0.89,20.2 -0.89,31.36 0,11.46 0.3,22.62 0.89,32.27 -1.79,2.71 -9.34,3.01 -11.45,0.29 l -1.5,-7.23 c -3.33,-14.77 -6.34,-16.88 -22.31,-16.88 h -23.24 c -8.12,0 -8.44,0.89 -8.44,9.03 v 54.59 0" />
        <path
           inkscape:connector-curvature="0"
           id="path81"
           style="fill:#0c2950;fill-opacity:1;fill-rule:nonzero;stroke:none"
           d="M 553.066,329.738 H 2.88281 c 0,0 368.26919,-123.508 550.18319,-329.347375 0.461,-0.519531 2.872,-0.519531 3.329,0 C 738.313,206.23 1106.58,329.738 1106.58,329.738 H 553.066" />
        <path
           inkscape:connector-curvature="0"
           id="path83"
           style="fill:#83c2ec;fill-opacity:1;fill-rule:nonzero;stroke:none"
           d="M 2.875,1227.66 H 1106.57 V 376.879 H 2.875 v 850.781 0" />
        <path
           inkscape:connector-curvature="0"
           id="path85"
           style="fill:#0c2950;fill-opacity:1;fill-rule:nonzero;stroke:none"
           d="M 0,1520.83 H 1103.7 V 1270.77 H 0 v 250.06 0" />
        <path
           inkscape:connector-curvature="0"
           id="path87"
           style="fill:#ffffff;fill-opacity:1;fill-rule:nonzero;stroke:none"
           d="m 773.164,399.879 v 526.277 c 40.895,0 200.691,108.044 252.936,256.314 V 676.254 c 0,-45.656 -22.95,-68.223 -53.049,-105.535 -62.746,-77.797 -114.137,-111.68 -199.887,-170.84 v 0" />
        <path
           inkscape:connector-curvature="0"
           id="path89"
           style="fill:#ffffff;fill-opacity:1;fill-rule:nonzero;stroke:none"
           d="m 83.3555,399.879 v 526.254 c 40.8825,0 200.6835,108.047 252.9255,256.297 V 676.238 c 0,-45.66 -22.945,-68.207 -53.039,-105.519 -62.746,-77.797 -114.14,-111.68 -199.8865,-170.84 v 0" />
        <path
           inkscape:connector-curvature="0"
           id="path91"
           style="fill:#ffffff;fill-opacity:1;fill-rule:nonzero;stroke:none"
           d="m 370.777,215.93 v 684.242 c 59.473,0 291.914,140.478 367.903,333.238 V 575.266 c 0,-59.395 -33.383,-88.707 -77.16,-137.215 C 570.25,336.891 495.504,292.84 370.777,215.93 v 0" />
        <path
           inkscape:connector-curvature="0"
           id="path93"
           style="fill:none;stroke:#ffffff;stroke-width:5.61065006;stroke-linecap:butt;stroke-linejoin:miter;stroke-miterlimit:3.86370993;stroke-dasharray:none;stroke-opacity:1"
           d="m 370.777,215.93 v 684.242 c 59.473,0 291.914,140.478 367.903,333.238 V 575.266 c 0,-59.395 -33.383,-88.707 -77.16,-137.215 C 570.25,336.891 495.504,292.84 370.777,215.93 Z" />
        <path
           inkscape:connector-curvature="0"
           id="path95"
           style="fill:#ffffff;fill-opacity:1;fill-rule:nonzero;stroke:none"
           d="m 167.914,1306.71 c -27.305,0 -29.781,7.45 -29.781,25.93 v 157.24 h -4.695 l -69.5122,-30.07 v -7.17 c 9.375,3.59 18.75,6.9 22.6172,6.9 10.7578,0 10.7578,-12.14 10.7578,-19.04 v -106.2 c 0,-17.1 -0.8281,-27.86 -32.8281,-27.59 v -6.62 H 167.914 v 6.62 0" />
        <path
           inkscape:connector-curvature="0"
           id="path97"
           style="fill:#ffffff;fill-opacity:1;fill-rule:evenodd;stroke:none"
           d="m 371.301,1343.4 c 0,20.14 5.797,28.69 14.07,41.1 18.758,-12.41 36.692,-24.27 36.692,-46.89 0,-7.18 0,-32.29 -24.547,-32.29 -17.934,0 -26.215,18.22 -26.215,38.08 z m 32.277,146.48 c -44.137,0 -62.621,-23.44 -62.621,-49.1 0,-22.89 17.656,-39.73 38.344,-51.31 -18.477,-5.79 -41.379,-16.55 -41.379,-46.63 0,-30.33 27.863,-46.33 57.664,-46.33 39.445,0 64.82,21.51 64.82,55.99 0,25.66 -17.656,44.96 -41.375,59.04 15.172,4.96 37.516,14.89 37.516,38.34 0,15.73 -11.039,40 -52.969,40 z m -27.035,-30.34 c 0,11.31 9.102,22.34 22.617,22.34 20.418,0 24.559,-19.58 24.559,-33.65 0,-16.55 -4.969,-23.18 -11.309,-31.73 -2.762,1.39 -35.867,17.38 -35.867,43.04 v 0" />
        <path
           inkscape:connector-curvature="0"
           id="path99"
           style="fill:#ffffff;fill-opacity:1;fill-rule:evenodd;stroke:none"
           d="m 703.516,1343.13 c 0,-21.79 0,-39.18 -16.825,-39.18 -17.109,0 -21.242,17.1 -21.242,71.45 0,9.1 2.203,24.56 2.477,24.82 3.039,3.32 7.726,3.6 12.14,3.6 19.032,0 23.45,-20.96 23.45,-60.69 z m 40.554,146.75 c -82.761,-8.28 -121.937,-61.24 -121.937,-111.45 0,-66.2 38.347,-81.92 63.176,-81.92 49.652,0 60.136,46.89 60.136,61.79 0,47.44 -30.898,57.93 -49.929,57.93 -13.246,0 -18.207,-1.93 -24.832,-4.69 12.14,50.76 45.8,65.65 73.386,71.17 v 7.17 0" />
        <path
           inkscape:connector-curvature="0"
           id="path101"
           style="fill:#ffffff;fill-opacity:1;fill-rule:nonzero;stroke:none"
           d="m 939.73,1451.54 h 76.68 l 11.87,35.03 h -88.823 l -26.769,-95.18 c 19.871,-1.37 40.832,-2.75 59.316,-11.02 14.617,-6.35 29.516,-20.14 29.516,-36.97 0,-22.62 -18.211,-28.69 -27.586,-28.69 -17.383,0 -33.102,24 -52.133,24 -11.871,0 -17.113,-8.83 -17.113,-16.55 0,-15.72 18.21,-24.28 39.457,-24.28 50.207,0 78.895,30.35 78.895,66.49 0,27.02 -16.28,44.41 -28.688,51.31 -18.489,10.47 -35.59,12.14 -60.692,13.51 l 6.07,22.35 v 0" />
      </g>
    </g>
  </g>
</svg>
